<svg xmlns="http://www.w3.org/2000/svg" width="116" height="20" viewBox="0 0 116 20">
    <g fill="#FFF" fill-rule="nonzero">
        <path d="M5.096 4.423c-.334 0-1.183.078-1.57.18v4.66c.773.154 1.57.154 2.523.154 1.441 0 2.651-.824 2.651-2.394 0-2.136-1.08-2.6-2.625-2.6h-.979zm6.538 14.878c-1.132 0-2.11-.437-2.574-1.57l-1.312-3.192c-.798-1.93-1.545-2.059-2.471-2.214-.772-.128-1.39-.23-1.75-.23v7.077H2.393C.824 19.172 0 18.22 0 16.804V2.03c.746-.283 3.217-.644 4.53-.644h1.956c3.501 0 5.792 2.11 5.792 5.07 0 2.395-1.57 4.377-3.63 4.685.953.386 1.75 1.442 2.188 2.471l1.416 3.295c.438 1.03.875 1.519 1.08 1.827-.41.438-.72.567-1.698.567zM22.523 13.123h-1.236c-2.625 0-3.372.618-3.372 1.75 0 1.081.875 1.725 2.394 1.725 1.493 0 2.214-.72 2.214-2.136v-1.339zm-1.879 6.28h-.695c-3.295 0-5.56-1.852-5.56-4.4 0-2.471 1.802-4.35 6.898-4.35h1.21v-.18c0-1.957-.927-2.55-2.986-2.55-2.497 0-3.886.953-4.401 1.597h-.13V8.413c0-1.544 1.391-3.398 5.046-3.398 3.089 0 5.869 1.442 5.869 6.229v3.192c0 2.934-2.162 4.968-5.251 4.968zM32.762 19.301c-2.677 0-4.144-1.518-4.144-4.325V5.582h.978c1.545 0 2.47.823 2.47 2.574v6.486c0 1.39.593 1.827 2.112 1.827h.643v.747c0 1.493-.592 2.085-2.059 2.085zM30.317 4.295c-1.107 0-2.008-.927-2.008-2.034A2.01 2.01 0 0 1 30.317.254c1.107 0 2.033.9 2.033 2.007a2.055 2.055 0 0 1-2.033 2.034zM40.947 19.48c-2.548 0-4.453-1.312-4.453-2.727v-1.57h.129c.746.694 2.523 1.312 4.17 1.312 1.698 0 2.522-.489 2.522-1.519 0-.797-.489-1.184-2.883-1.518-2.934-.412-4.35-1.57-4.35-3.68 0-2.6 2.343-4.814 5.895-4.814 3.14 0 4.427 1.621 4.427 2.96v1.313h-.129c-.72-.721-2.316-1.287-3.964-1.287-2.11 0-2.78.643-2.78 1.544 0 .695.412.978 2.78 1.364 2.883.464 4.427 1.725 4.427 3.939 0 2.934-2.059 4.684-5.79 4.684M55.258 7.847c-1.673 0-2.83 1.364-2.908 2.96l-.026.463h1.544c3.27 0 4.016-.36 4.016-1.338 0-1.39-1.03-2.085-2.626-2.085zm-.643 5.869H52.35c.257 1.75 1.853 2.857 3.887 2.857 1.44 0 3.14-.284 4.247-1.313h.128v1.08c0 1.777-1.21 3.14-5.02 3.14-3.448 0-6.82-2.727-6.82-6.974 0-4.633 2.831-7.542 6.795-7.542 2.883 0 5.56 2.059 5.56 5.38 0 2.547-1.93 3.372-6.512 3.372zM76.751 19.172c-1.364 0-2.857-.411-5.044-4.659L68.489 8.26c-.49-.978-.876-1.647-1.184-2.06v12.973h-1.39c-1.03 0-2.137-.772-2.137-2.317V1.541h1.75c2.317 0 3.81 1.235 4.995 3.603l3.088 6.178c.36.72.772 1.775 1.03 2.368V1.54h1.57c.901 0 1.93.901 1.93 2.034v15.598h-1.39M87.407 8.053c-1.981 0-2.986 1.647-2.986 3.938 0 2.754 1.005 4.4 3.295 4.4 2.008 0 2.986-1.646 2.986-3.91 0-2.78-1.03-4.428-3.295-4.428zm.31-3.089c4.17 0 6.563 3.346 6.563 7.027 0 4.17-2.394 7.49-6.873 7.49-4.17 0-6.563-3.32-6.563-7 0-4.17 2.394-7.517 6.872-7.517zM114.177 12.506c-.949 2.961-2.317 5.482-3.217 6.82h-.567c-1.08 0-1.905-1.003-2.368-1.853-.85-1.544-1.904-4.118-2.291-6.229-.437 2.111-2.059 6.41-3.294 8.082h-.464c-1.03 0-2.007-1.029-2.47-1.853-2.009-3.552-3.347-7.567-3.965-12.2h1.853c1.185 0 1.88.9 2.008 1.673.412 2.368 1.056 4.994 2.214 7.516 1.26-2.754 1.956-5.74 2.625-8.674h1.133c1.055 0 2.11.437 2.445 1.956.412 1.879 1.262 4.762 2.24 6.718 1.312-2.908 2.059-9.668 2.6-12.808h1.44c.979 0 1.674.437 1.674 1.493 0 .54-.682 6.509-1.596 9.359"/>
    </g>
</svg>
